<?xml version="1.0" standalone="no"?>
<!DOCTYPE svg PUBLIC "-//W3C//DTD SVG 1.1//EN" "http://www.w3.org/Graphics/SVG/1.1/DTD/svg11.dtd" >
<!--
2013-9-30: Created.
-->
<svg>
<metadata>
Created by iconfont
</metadata>
<defs>

<font id="iconfont" horiz-adv-x="1024" >
  <font-face
    font-family="iconfont"
    font-weight="500"
    font-stretch="normal"
    units-per-em="1024"
    ascent="896"
    descent="-128"
  />
    <missing-glyph />
    
    <glyph glyph-name="fukuanfangshi" unicode="&#983090;" d="M716.8 522.24q62.464 0 118.272-23.552t97.792-64.512 66.56-95.744 24.576-116.224-24.576-116.736-66.56-96.768-97.792-65.536-118.272-24.064-116.736 24.064-94.208 65.536-62.976 96.768-23.04 116.736 23.04 116.224 62.976 95.744 94.208 64.512 116.736 23.552zM885.76 254.976l-94.208 0 92.16 89.088-46.08 46.08-105.472-99.328 33.792-35.84-110.592 0 32.768 44.032-97.28 94.208-38.912-52.224 88.064-86.016-79.872 0 0-57.344 138.24 0 0-45.056-138.24 0 0-49.152 138.24 0 0-92.16 52.224 0 0 92.16 135.168 0 0 49.152-135.168 0 0 45.056 135.168 0 0 57.344zM896 802.816q26.624 0 50.176-10.24t40.96-27.648 27.136-40.448 9.728-49.664l0-151.552-140.288 0q0 26.624-12.288 37.888t-38.912 11.264l-625.664 0q-26.624 0-46.592-18.432t-19.968-45.056l0-385.024q0-26.624 19.968-45.568t46.592-18.944l212.992 0 0-140.288-290.816 0q-26.624 0-50.176 11.776t-40.96 31.744-27.648 45.056-10.24 51.712l0 615.424q0 26.624 10.24 49.664t27.648 40.448 40.96 27.648 50.176 10.24l766.976 0z"  horiz-adv-x="1024" />

    
    <glyph glyph-name="gouwucheman" unicode="&#983416;" d="M346.112 89.088q19.456 0 36.864-7.168t30.208-19.968 20.48-30.208 7.68-36.864-7.68-36.864-20.48-30.208-30.208-20.48-36.864-7.68q-20.48 0-37.888 7.68t-30.208 20.48-20.48 30.208-7.68 36.864 7.68 36.864 20.48 30.208 30.208 19.968 37.888 7.168zM772.096 87.04q19.456 0 37.376-7.168t30.72-19.968 20.48-30.208 7.68-36.864-7.68-36.864-20.48-30.208-30.72-20.48-37.376-7.68-36.864 7.68-30.208 20.48-20.48 30.208-7.68 36.864 7.68 36.864 20.48 30.208 30.208 19.968 36.864 7.168zM944.128 668.672q28.672 0 44.544-7.68t22.528-18.944 6.144-24.064-3.584-22.016-13.312-37.888-22.016-62.976-23.552-68.096-18.944-53.248q-13.312-40.96-33.28-56.832t-49.664-15.872l-35.84 0-65.536 0-86.016 0-96.256 0-253.952 0 14.336-92.16 517.12 0q49.152 0 49.152-41.984 0-20.48-9.728-35.328t-38.4-14.848l-49.152 0-94.208 0-118.784 0-119.808 0-99.328 0-55.296 0q-20.48 0-34.304 9.216t-23.04 24.064-14.848 32.256-8.704 32.768q-1.024 6.144-5.632 29.696t-11.264 58.88-14.848 78.848-16.384 87.552q-19.456 103.424-44.032 230.4l-76.8 0q-15.36 0-25.6 7.68t-16.896 18.432-9.216 23.04-2.56 22.528q0 20.48 13.824 33.792t37.376 13.312l21.504 0 21.504 0 25.6 0 34.816 0q20.48 0 32.768-6.144t19.456-15.36 10.24-19.456 5.12-17.408q2.048-8.192 4.096-23.04t4.096-30.208q3.072-18.432 6.144-38.912l700.416 0zM867.328 701.44l-374.784 0 135.168 135.168q23.552 23.552 51.712 24.064t51.712-23.04z"  horiz-adv-x="1024" />

    
    <glyph glyph-name="taogongzi" unicode="&#58885;" d="M399.452691 179.033951l79.505775 0 0-119.887484-79.505775 0 0 119.887484ZM618.3297 179.033951l79.505775 0 0-119.887484-79.505775 0 0 119.887484ZM259.001869 550.685459c-49.393967-5.247514-13.373589-50.794873 6.711865-84.97944 7.864108-13.385868 13.160741-26.329668 16.736173-37.605479C155.99382 352.368718 70.02689 215.991678 64.790632 59.146467l96.722902 0c6.372128 149.446707 106.241696 274.664593 242.603387 318.698482-20.132526 62.946634-46.763047 78.33102-20.982894 80.759325 42.468231-3.908006 93.244684-36.830837 128.445394-63.832817 0.145309 0 0.288572 0.005117 0.433882 0.005117 188.662871 0 342.520027-148.926868 350.482373-335.630107l96.735182 0c-7.687076 230.269477-189.358719 416.431388-417.744289 431.286724C478.816227 523.457328 375.993396 563.113513 259.001869 550.685459z"  horiz-adv-x="1024" />

    
    <glyph glyph-name="arrow-down" unicode="&#58952;" d="M511.5 106.1l-430.9 430.9c-22.8 22.8-22.8 59.8 0 82.6s59.8 22.8 82.6 0l348.3-348.3 348.3 348.3c22.8 22.8 59.8 22.8 82.6 0 22.8-22.8 22.8-59.8 0-82.6l-430.9-430.9zM511.5 106.1z"  horiz-adv-x="1024" />

    
    <glyph glyph-name="xiaolian" unicode="&#58919;" d="M512.016-128C229.232-128 0.016 101.216 0.016 384 0.016 666.784 229.232 896 512.016 896 794.784 896 1024 666.784 1024 384 1024 101.216 794.784-128 512.016-128ZM512.016 832C264.976 832 64.016 631.04 64.016 384 64.016 136.976 264.976-64 512.016-64 759.04-64 960 136.976 960 384 960 631.04 759.04 832 512.016 832ZM510.336 62.544C509.056 62.544 507.744 62.512 506.448 62.512 310.992 62.512 229.024 238.88 225.616 246.448 218.336 262.576 225.488 281.504 241.584 288.784 257.712 296.032 276.576 288.912 283.888 272.912 286.64 266.88 352.928 126.512 506.576 126.512 507.584 126.512 508.576 126.544 509.584 126.544 672.896 128.448 738.368 271.232 739.024 272.656 746.176 288.784 765.024 296.128 781.264 288.848 797.392 281.664 804.672 262.752 797.456 246.592 794.176 239.2 714.208 64.944 510.336 62.544ZM671.504 416.16C636.224 416.16 607.664 444.768 607.664 480.016 607.664 515.232 636.224 543.824 671.504 543.824 706.768 543.824 735.344 515.232 735.344 480.016 735.344 444.768 706.768 416.16 671.504 416.16ZM351.504 416.16C316.224 416.16 287.664 444.768 287.664 480.016 287.664 515.232 316.224 543.824 351.504 543.824 386.768 543.824 415.344 515.232 415.344 480.016 415.344 444.768 386.768 416.16 351.504 416.16Z"  horiz-adv-x="1025" />

    
    <glyph glyph-name="search" unicode="&#58915;" d="M703.722 252.105c36.472 58.77 57.825 129.217 57.825 205.042 0 205.042-155.362 371.317-347.017 371.317-191.655 0-347.017-166.275-347.017-371.317 0-204.998 155.363-371.295 347.017-371.295 101.925 0 193.32 47.34 256.792 122.22l-3.442-4.838 247.657-263.7 40.905 43.808-252.72 268.762zM414.552 148.312c-159.705 0-289.17 138.24-289.17 308.835 0 170.617 129.465 308.858 289.17 308.858 159.683 0 289.192-138.24 289.192-308.857-0.023-170.595-129.51-308.835-289.192-308.835z"  horiz-adv-x="1024" />

    
    <glyph glyph-name="shangjiantou" unicode="&#58954;" d="M832.522014 226.048595c0 8.782014-3.235694 17.565051-9.708106 24.26873L535.638373 547.801646c-12.932544 13.408381-33.9226 13.408381-46.855144 0l-287.172465-297.485345c-12.9438-13.408381-12.9438-35.130102 0-48.53746 12.932544-13.408381 33.9226-13.408381 46.855144 0l263.744893 273.215592 263.747963-273.215592c12.932544-13.408381 33.9226-13.408381 46.855144 0C829.28632 208.483544 832.522014 217.265558 832.522014 226.048595z"  horiz-adv-x="1024" />

    
    <glyph glyph-name="xingxing" unicode="&#58946;" d="M949.12 509.408c-4.864 15.008-17.856 25.952-33.44 28.192l-256.992 37.344-114.944 232.896c-6.976 14.144-21.376 23.104-37.152 23.104-15.776 0-30.176-8.96-37.152-23.104l-114.944-232.896L97.472 537.6c-15.616-2.272-28.576-13.184-33.44-28.192s-0.8-31.456 10.496-42.464l185.984-181.28-43.904-255.968c-2.656-15.552 3.712-31.264 16.48-40.544 12.768-9.28 29.664-10.496 43.648-3.136l229.888 120.864 229.856-120.864c6.048-3.168 12.672-4.768 19.264-4.768 8.576 0 17.152 2.656 24.352 7.904 12.768 9.28 19.136 24.992 16.48 40.544l-43.904 255.968 185.984 181.28C949.92 477.952 953.984 494.4 949.12 509.408z"  horiz-adv-x="1024" />

    
    <glyph glyph-name="jiantou8" unicode="&#58890;" d="M512 205.748l-427.805 427.805c-14.26 14.26-35.65 14.26-49.91 0s-14.26-35.65 0-49.91l449.195-449.195c7.13-7.13 21.39-14.26 28.52-14.26s21.39 0 28.52 7.13l456.325 456.325c14.26 14.26 14.26 35.65 0 49.91s-35.65 14.26-49.91 0l-434.935-427.805z"  horiz-adv-x="1024" />

    
    <glyph glyph-name="jiantou9" unicode="&#58891;" d="M944.083879 606.463698c14.264888-18.286482 15.462157-41.208541 2.670829-51.196009l-417.191704-325.421604c-2.885723-2.261507-12.156878-7.828292-13.732769-9.578146-15.544021-17.181311-37.893029-22.338774-49.947576-11.461029l-392.908648 354.309538c-12.054547 10.887978-9.271154 33.666774 6.272867 50.889017 15.544021 17.21201 37.893029 22.349007 49.988508 11.471262l357.584118-322.443783 408.258241 318.463122C907.910005 631.483534 929.84969 624.739946 944.083879 606.463698z"  horiz-adv-x="1024" />

    
    <glyph glyph-name="zuojiantou" unicode="&#58951;" d="M721.768049-61.138196c-7.789407 0-15.579837 2.935865-21.571295 8.867972l-419.492096 414.459476c-5.812379 5.752004-9.106402 13.601786-9.106402 21.810748 0 8.207939 3.295046 16.057721 9.106402 21.809725l419.492096 414.459476c11.983939 11.983939 31.457456 11.744485 43.382043-0.239454 11.864212-12.103666 11.744485-31.517831-0.239454-43.382043L345.955778 384l397.382543-392.648728c11.983939-11.864212 12.103666-31.277354 0.239454-43.382043C737.586316-58.082604 729.678206-61.138196 721.768049-61.138196z"  horiz-adv-x="1024" />

    
    <glyph glyph-name="zuojiantou1" unicode="&#59105;" d="M710.4 57.6 358.4 403.2c-12.8 12.8-32 12.8-44.8 0l0 0c-12.8-12.8-12.8-32 0-44.8l352-352c12.8-12.8 32-12.8 44.8 0l0 0C723.2 19.2 723.2 44.8 710.4 57.6zM358.4 364.8l352 352c12.8 12.8 12.8 32 0 44.8l0 0c-12.8 12.8-32 12.8-44.8 0L313.6 409.6c-12.8-12.8-12.8-32 0-44.8l0 0C326.4 352 345.6 352 358.4 364.8z"  horiz-adv-x="1024" />

    
    <glyph glyph-name="fangdajing" unicode="&#59108;" d="M889.6 57.6l-192 192C742.4 300.8 768 371.2 768 448c0 179.2-140.8 320-320 320S128 627.2 128 448s140.8-320 320-320c76.8 0 147.2 25.6 198.4 70.4l192-192c12.8-12.8 32-12.8 44.8 0C896 19.2 896 44.8 889.6 57.6zM192 448c0 140.8 115.2 256 256 256s256-115.2 256-256c0-140.8-115.2-256-256-256S192 307.2 192 448z"  horiz-adv-x="1024" />

    
    <glyph glyph-name="weibo1" unicode="&#58627;" d="M411.271 288.35c-17.974 7.505-41.189-0.229-52.264-17.543-11.224-17.395-5.955-38.104 11.87-46.201 18.109-8.232 42.132-0.418 53.342 17.421 11.035 18.028 5.228 38.602-12.948 46.323zM455.545 306.648c-6.885 2.722-15.508-0.579-19.55-7.33-3.921-6.791-1.752-14.525 5.147-17.368 7.020-2.883 16.007 0.458 20.049 7.37 3.88 6.939 1.361 14.767-5.645 17.327zM427.52 426.685c-115.968-11.439-203.924-82.216-196.379-158.073 7.532-75.911 107.655-128.162 223.65-116.749 115.995 11.439 203.924 82.216 196.392 158.141-7.518 75.857-107.641 128.108-223.663 116.682zM529.3 247.7c-23.673-53.356-91.769-81.799-149.531-63.232-55.754 17.933-79.373 72.812-54.946 122.247 23.956 48.465 86.353 75.87 141.541 61.561 57.142-14.713 86.299-68.419 62.936-120.576zM512 896c-282.759 0-512-229.228-512-512 0-282.759 229.241-512 512-512 282.772 0 512 229.241 512 512 0 282.772-229.228 512-512 512zM455.532 101.026c-145.354 0-293.942 70.198-293.942 185.667 0 60.362 38.387 130.183 104.475 196.069 88.253 87.929 191.165 127.987 229.875 89.398 17.085-17.004 18.742-46.457 7.761-81.624-5.726-17.691 16.667-7.896 16.667-7.936 71.343 29.763 133.565 31.515 156.322-0.862 12.14-17.246 10.954-41.472-0.216-69.511-5.174-12.921 1.59-14.929 11.466-17.88 40.179-12.423 84.925-42.456 84.925-95.38-0.027-87.606-126.774-197.942-317.332-197.942zM718.673 468.197c4.716 14.457 1.765 30.963-9.203 43.062-10.954 12.072-27.136 16.667-42.038 13.528v0.027c-12.463-2.695-24.724 5.268-27.392 17.664-2.668 12.463 5.282 24.697 17.745 27.338 30.531 6.467 63.596-2.937 85.989-27.715 22.447-24.765 28.456-58.489 18.85-88.064-3.907-12.099-16.936-18.728-29.063-14.848-12.14 3.921-18.782 16.923-14.875 28.995l-0.013 0zM853.261 424.866c-0.013-0.013-0.013-0.081-0.013-0.108-4.568-14.026-19.712-21.706-33.779-17.165-14.134 4.554-21.854 19.591-17.3 33.671v0.013c13.999 43.17 5.12 92.429-27.567 128.566-32.714 36.123-80.95 49.92-125.507 40.488-14.484-3.085-28.753 6.131-31.838 20.574-3.099 14.403 6.144 28.632 20.642 31.717h0.027c62.626 13.272 130.52-6.117 176.546-56.967 46.013-50.769 58.422-120.037 38.791-180.79z"  horiz-adv-x="1024" />

    
    <glyph glyph-name="caidan" unicode="&#58886;" d="M128 682.666667h768c12.8 0 21.333333 8.533333 21.333333 21.333333s-8.533333 21.333333-21.333333 21.333333H128c-12.8 0-21.333333-8.533333-21.333333-21.333333s8.533333-21.333333 21.333333-21.333333zM896 405.333333H128c-12.8 0-21.333333-8.533333-21.333333-21.333333s8.533333-21.333333 21.333333-21.333333h768c12.8 0 21.333333 8.533333 21.333333 21.333333s-8.533333 21.333333-21.333333 21.333333zM896 85.333333H128c-12.8 0-21.333333-8.533333-21.333333-21.333333s8.533333-21.333333 21.333333-21.333333h768c12.8 0 21.333333 8.533333 21.333333 21.333333s-8.533333 21.333333-21.333333 21.333333z"  horiz-adv-x="1024" />

    
    <glyph glyph-name="gouwuche" unicode="&#58912;" d="M349.365-45.176c54.212 0 90.353 42.165 90.353 96.376s-42.165 96.376-90.353 96.376c-54.212 0-90.353-42.165-90.353-96.376s42.165-96.376 90.353-96.376zM349.365 15.059c-18.071 0-30.118 12.047-30.118 36.141 0 18.071 12.047 36.141 30.118 36.141s30.118-12.047 30.118-36.141c6.024-18.071-12.047-36.141-30.118-36.141zM698.729-45.176c54.212 0 90.353 42.165 90.353 96.376s-42.165 96.376-90.353 96.376c-54.212 0-90.353-42.165-90.353-96.376s42.165-96.376 90.353-96.376zM698.729 15.059c-18.071 0-30.118 12.047-30.118 36.141 0 18.071 12.047 36.141 30.118 36.141s30.118-12.047 30.118-36.141c6.024-18.071-12.047-36.141-30.118-36.141zM42.165 755.953h48.188c18.071 0 42.165-18.071 42.165-36.141l114.447-548.141c12.047-48.188 54.212-84.329 102.4-84.329h463.812v60.235h-463.812c-18.071 0-36.141 18.071-42.165 36.141l-114.447 548.141c-12.047 48.188-54.212 84.329-102.4 84.329h-48.188v-60.235zM265.035 304.188v-60.235h572.235l126.494 246.965c42.165 78.306-6.024 150.588-96.376 150.588h-674.635v-60.235h674.635c42.165 0 60.235-24.094 42.165-66.259l-108.424-210.824h-536.094z"  horiz-adv-x="1024" />

    
    <glyph glyph-name="xiajiantou" unicode="&#58897;" d="M507.8 168.272a30.016 30.016 0 0 0-21.288 8.824L231.104 432.504a30.088 30.088 0 0 0 0 42.568 30.088 30.088 0 0 0 42.568 0l234.128-234.128 234.16 234.128a30.088 30.088 0 0 0 42.568 0 30.088 30.088 0 0 0 0-42.568L529.08 177.096a30 30 0 0 0-21.28-8.824z"  horiz-adv-x="1024" />

    
    <glyph glyph-name="xiajiantou1" unicode="&#59185;" d="M508.025406 240.553282c-14.45307 0-28.183486 5.781228-39.023289 15.898376l-231.249118 231.249118c-10.117149 10.117149-10.117149 26.015526 0 36.132675s26.015526 10.117149 36.132675 0l231.249118-231.249118c2.16796-2.16796 4.335921-2.16796 5.781228 0l231.971771 231.971771c10.117149 10.117149 26.015526 10.117149 35.410021 0 10.117149-10.117149 10.117149-26.015526 0-36.132674l-231.971771-231.971772c-9.394495-10.117149-23.124912-15.898377-38.300635-15.898376z"  horiz-adv-x="1024" />

    
    <glyph glyph-name="yanzhengma" unicode="&#58970;" d="M800 704H224a128 128 0 0 1-128-128v-384a128 128 0 0 1 128-128h576a128 128 0 0 1 128 128V576a128 128 0 0 1-128 128zM309.184 228.992h-36.608V474.368a188.992 188.992 0 0 0-34.624-26.496 234.816 234.816 0 0 0-38.528-19.904v37.184c20.416 10.112 38.336 22.4 53.632 36.8 15.296 14.4 26.176 28.352 32.512 41.92h23.616v-314.88z m283.456 0H395.648a71.552 71.552 0 0 0 4.288 26.752c5.056 14.144 13.056 28.032 24.064 41.728 11.072 13.632 27.008 29.504 47.872 47.488 32.384 27.968 54.272 50.048 65.664 66.432 11.392 16.32 17.088 31.744 17.088 46.336a52.8 52.8 0 0 1-15.552 38.592A54.656 54.656 0 0 1 498.496 512c-17.6 0-31.68-5.568-42.304-16.64-10.56-11.136-15.872-26.56-16.064-46.208l-37.568 4.032c2.56 29.504 12.224 52.032 29.056 67.52s39.36 23.168 67.712 23.168c28.608 0 51.2-8.32 67.968-25.024 16.64-16.704 25.024-37.376 25.024-62.08 0-12.544-2.496-24.896-7.36-36.992s-12.992-24.832-24.32-38.272-30.144-31.808-56.448-55.104c-21.952-19.456-36.032-32.64-42.304-39.552a126.72 126.72 0 0 1-15.424-20.864H592.64v-36.992z m203.456 22.976c-18.88-19.136-42.88-28.544-72-28.544-26.048 0-47.872 8.192-65.152 24.576s-27.008 37.696-29.44 63.808l36.544 5.12c4.16-21.824 11.328-37.504 21.44-47.168 10.112-9.6 22.4-14.464 36.864-14.464 17.28 0 31.744 6.272 43.648 18.816 11.904 12.48 17.728 28.096 17.728 46.656a60.48 60.48 0 0 1-16.384 43.712 55.488 55.488 0 0 1-41.856 17.28c-6.912 0-15.488-1.408-25.792-4.288l4.032 33.792a72.576 72.576 0 0 1 48 12.416c12.48 8.576 18.624 21.76 18.624 39.616a46.912 46.912 0 0 1-48.768 48.96 48.512 48.512 0 0 1-35.584-14.08c-9.472-9.472-15.552-23.616-18.304-42.432l-36.544 6.848c4.48 25.792 14.656 45.824 30.528 60.032 15.872 14.208 35.584 21.312 59.136 21.312 16.256 0 31.232-3.648 44.928-11.008 13.696-7.36 24.128-17.344 31.424-30.08 7.232-12.736 10.88-26.176 10.88-40.448 0-13.504-3.52-25.856-10.368-36.992a72.128 72.128 0 0 0-30.656-26.56c17.536-4.288 31.232-13.184 41.088-26.624 9.664-13.504 14.656-30.336 14.656-50.624a95.488 95.488 0 0 0-28.672-69.632z"  horiz-adv-x="1024" />

    
    <glyph glyph-name="xiangji" unicode="&#59322;" d="M930.048-32H93.952C42.112-32 0 12.16 0 66.432V581.312c0 54.272 42.112 98.432 93.952 98.432h159.424C277.376 738.752 315.008 800 367.36 800h289.28c55.424 0 91.776-61.056 113.92-120.256h159.488c51.84 0 93.952-44.16 93.952-98.432v-514.88c0-54.272-42.112-98.432-93.952-98.432zM93.952 615.744c-16.512 0-29.952-15.424-29.952-34.432v-514.88c0-19.008 13.44-34.432 29.952-34.432h836.096c16.512 0 29.952 15.424 29.952 34.432V581.312c0 19.008-13.44 34.432-29.952 34.432h-182.272a32 32 0 0 0-30.464 22.144c-21.888 67.648-48.64 98.112-60.672 98.112H367.36c-9.088 0-36.544-29.12-61.952-99.136a32 32 0 0 0-30.08-21.12H93.952zM800 512a32 32 0 1 0 0 64 32 32 0 0 0 0-64M512 160c-105.856 0-192 86.144-192 192s86.144 192 192 192 192-86.144 192-192-86.144-192-192-192z m0 320c-70.592 0-128-57.408-128-128s57.408-128 128-128 128 57.408 128 128-57.408 128-128 128z"  horiz-adv-x="1024" />

    
    <glyph glyph-name="taopiaopiaoicon" unicode="&#58947;" d="M638.3703125 738.8071875C559.4093750000001 759.740625 535.1103125 864 387.4953125 864c53.431875-61.371562499999996 28.779375-115.2515625-11.315625-127.6209375C180.52625 684.1453125 33.828125 519.3159375 43.112187500000005 291.478125 52.67750000000001 56.961562500000014 253.03812499999998-96 511.99906250000004-96c258.961875 0 459.331875 152.96156249999999 468.88687500000003 387.478125 9.440625 231.4846875-142.1653125 397.93875-342.515625 447.3290625z m276.29625-323.315625c-0.073125-1.125-1.1784374999999998-7.0649999999999995-7.0443750000000005-8.5340625-0.271875-0.06375-0.5325-0.21937500000000001-0.7921874999999999-0.3440625-7.575-3.375-19.078125-12.930937499999999-23.1534375-39.896249999999995-1.5-12.192187500000001-3.9590625-24.924374999999998-6.6159375-38.595l-0.0309375-0.155625c-7.545-38.8865625-19.6209375-71.176875-35.90625-95.9765625-22.7896875-34.676249999999996-53.75625-54.004687499999996-89.5790625-55.880625-26.143124999999998-1.365-48.118125-1.4475-67.186875-0.2503125-55.214062500000004 3.4696875-86.86874999999999 17.786250000000003-109.28156249999999 49.42125-30.155624999999997 42.553125-43.940625 119.889375-61.84125 119.889375-17.901562499999997 0-31.687499999999996-77.3353125-61.84125-119.889375-22.4128125-31.634062500000002-54.067499999999995-45.950625-109.28156249999999-49.42125-19.06875-1.1971874999999998-41.04375-1.11375-67.186875 0.2503125-35.821875 1.875-66.7903125 21.204375-89.578125 55.880625-16.2853125 24.798750000000002-28.3621875 57.089062500000004-35.90625 95.9765625l-0.0309375 0.155625c-2.656875 13.670625000000001-5.116875 26.403750000000002-6.6159375 38.595-4.074375 26.965312500000003-15.5775 36.52125-23.1525 39.896249999999995-0.260625 0.12562500000000001-0.52125 0.28125-0.7921874999999999 0.3440625-5.865937499999999 1.4690625-6.9703124999999995 7.408125-7.0443750000000005 8.533125-0.6871875 10.92-3.3965625000000004 35.240625-4.355625 50.411249999999995-0.7096875 11.325 8.6175 12.805312500000001 10.3875 12.920625 65.1759375 4.095000000000001 216.38718749999998 12.2221875 285.13593749999995-5.731875 20.5378125-5.36625 79.2628125-16.5159375 110.2621875-16.5159375 30.998437499999998 0 89.7234375 11.1496875 110.2603125 16.5159375 68.7496875 17.953125 219.96 9.825000000000001 285.13593749999995 5.731875 1.7709375-0.114375 11.09625-1.5946875 10.3875-12.920625-0.95625-15.1715625-3.6656250000000004-39.49125-4.351875000000001-50.411249999999995zM386.3234375 419.97749999999996a347.0840625 347.0840625 0 0 1-4.8871875000000005 0.958125c-24.47625 4.574062499999999-74.375625 10.8890625-112.99125000000001 8.4609375-17.0053125-1.0640625-31.81125-3.8353125-41.293124999999996-9.200625-23.506875-13.2965625-25.414687500000003-34.207499999999996-21.454687500000002-62.28937499999999 1.1568749999999999-8.1590625 2.79375-16.912499999999998 4.5534375-26.26875 9.388124999999999-50.0971875 31.593750000000004-103.426875 77.825625-106.104375 20.7459375-1.2084374999999998 37.78125-1.2825000000000002 51.890625-0.3965625 43.3771875 2.7309375 59.015625 14.54625 69.8015625 30.55125 61.641562500000006 91.5703125 37.2703125 151.734375-23.445 164.28937499999998zM799.3184375 420.19687500000003c-9.481875 5.3653125-24.2878125 8.1375-41.292187500000004 9.200625-38.615624999999994 2.4281249999999996-88.5159375-3.886875-112.99125000000001-8.4609375-1.7606249999999999-0.33281249999999996-3.406875-0.65625-4.8862499999999995-0.958125-60.716249999999995-12.555-85.0875-72.71906249999999-23.4440625-164.28750000000002 10.783125-16.005 26.4234375-27.8203125 69.8015625-30.550312500000004 14.1075-0.886875 31.143749999999997-0.81375 51.889687499999994 0.395625 46.232812499999994 2.6774999999999998 68.4365625 56.00625 77.825625 106.104375 1.7606249999999999 9.356250000000001 3.3965625000000004 18.1096875 4.5525 26.26875 3.9581250000000003 28.078125 2.0521875 48.991875-21.455624999999998 62.287499999999994z"  horiz-adv-x="1024" />

    
    <glyph glyph-name="emotion" unicode="&#58945;" d="M512.386398-128a512 512 0 1 0 512.113646 511.977271 512.045459 512.045459 0 0 0-512.113646-511.977271z m-0.681879 932.264583a419.605434 419.605434 0 1 1 419.696351-419.71908A419.650892 419.650892 0 0 1 511.704519 804.264583z m0.704608-699.562106a278.888396 278.888396 0 0 0-239.543993 136.17118l83.234662 41.617331a186.380183 186.380183 0 0 1 312.505016-0.295481l82.257303-43.185652a278.865666 278.865666 0 0 0-238.452988-134.307378z m162.44624 325.824381a68.756104 68.756104 0 0 0-69.278878 68.187872l0.636421 2.659327a69.324336 69.324336 0 0 0 138.648672 0l-0.63642-2.659327a68.756104 68.756104 0 0 0-69.369795-68.187872z m-162.44624 232.702477h1.386487-2.750244c0.500044-0.068188 0.909172 0 1.363757 0z m-163.40087-232.702477a68.756104 68.756104 0 0 0-69.278878 68.187872l0.636421 2.659327a69.324336 69.324336 0 0 0 138.648672 0l-0.63642-2.659327a68.756104 68.756104 0 0 0-69.369795-68.187872z"  horiz-adv-x="1024" />

    
    <glyph glyph-name="shangjiantou1" unicode="&#58938;" d="M109.4 181.6c14.2-14.2 37.2-14.2 51.4 0L508.2 529c2.9 2.8 7.5 2.8 10.3 0L866 181.6c14.2-14.2 37.2-14.2 51.4 0 14.2 14.2 14.2 37.2 0 51.4L569.9 580.5c-15.6 15.6-36 23.4-56.5 23.4s-41-7.8-56.5-23.4L109.4 233c-14.2-14.2-14.2-37.2 0-51.4z"  horiz-adv-x="1024" />

    
    <glyph glyph-name="xiangji1" unicode="&#59091;" d="M864 0H160c-52.8 0-96 43.2-96 96V544c0 52.8 43.2 96 96 96h124.8l36.8 75.2c16 32 49.6 52.8 86.4 52.8h209.6c36.8 0 68.8-20.8 86.4-52.8l36.8-75.2H864c52.8 0 96-43.2 96-96v-448c0-52.8-43.2-96-96-96zM160 576c-17.6 0-32-14.4-32-32v-448c0-17.6 14.4-32 32-32h704c17.6 0 32 14.4 32 32V544c0 17.6-14.4 32-32 32H720c-12.8 0-24 6.4-28.8 17.6l-46.4 92.8c-4.8 11.2-16 17.6-28.8 17.6H408c-12.8 0-22.4-6.4-28.8-17.6l-46.4-92.8c-4.8-11.2-16-17.6-28.8-17.6H160z m352-416c-97.6 0-176 78.4-176 176s78.4 176 176 176 176-78.4 176-176-78.4-176-176-176z m0 288c-62.4 0-112-49.6-112-112s49.6-112 112-112 112 49.6 112 112-49.6 112-112 112z"  horiz-adv-x="1024" />

    
    <glyph glyph-name="youjiantou" unicode="&#58921;" d="M711.6 407.376L355.2 743.024a29.36 29.36 0 0 1-42.352 0 31.408 31.408 0 0 1 0-43.552L647.76 384 312.848 68.64a31.408 31.408 0 0 1 0-43.552 29.36 29.36 0 0 1 42.352 0l356.4 335.648a36.32 36.32 0 0 1 0 46.64z"  horiz-adv-x="1024" />

    
    <glyph glyph-name="suo" unicode="&#58865;" d="M847.382261 471.574261h-74.128696V640.089043C773.253565 781.445565 656.11687 896 511.554783 896 367.126261 896 249.989565 781.445565 249.989565 640.089043v-168.514782H175.994435C140.243478 471.574261 111.304348 443.213913 111.304348 408.30887v-461.334261c0-34.949565 28.93913-63.22087 64.690087-63.22087h672.01113c17.185391 0 33.613913 6.633739 45.723826 18.476522 12.154435 11.887304 18.966261 27.959652 18.966261 44.744348V408.30887c0 16.918261-6.90087 33.079652-19.144348 44.966956a65.446957 65.446957 0 0 1-46.169043 18.253913z m-174.525218 0h-322.337391V635.993043c0 87.084522 72.125217 157.651478 161.168696 157.651479s161.168696-70.566957 161.168695-157.606957v-164.507826z"  horiz-adv-x="1024" />

    
    <glyph glyph-name="logindn" unicode="&#58887;" d="M125.5 514.2L65.2 577V760.5s0 64.1 62.8 64.1h763.9s64.1 0 62.8-64.1v-560.4s0-62.8-62.8-62.8h-260l2.5-130.7-194.8 193.5h452.3V760.5H125.5v-246.3z m0 0M244.9 401.2V662.5h522.7v-364.4h-426zM634.4 6.600000000000023h175.9s46.5-30.2 0-60.3H694.7l-60.3 60.3z"  horiz-adv-x="1024" />

    
    <glyph glyph-name="tubiaoanquandunpai-huise" unicode="&#58888;" d="M512 853.333333L128 682.666667v-256c0-237.013333 163.626667-458.026667 384-512 220.373333 53.973333 384 274.986667 384 512V682.666667L512 853.333333z m0-468.906666h298.666667c-22.613333-175.786667-139.733333-332.373333-298.666667-381.226667V384H213.333333V627.2l298.666667 132.693333v-375.466666z"  horiz-adv-x="1024" />

    
    <glyph glyph-name="zuojiantou2" unicode="&#59249;" d="M256.05 383.096l322.21 322.646 45.119-45.204-322.21-322.646zM301.189 428.281l316.599-317.035-45.12-45.203-316.599 317.035z"  horiz-adv-x="1024" />

    
    <glyph glyph-name="wenhao" unicode="&#58958;" d="M512 848C255.78666667 848 48 640.2133333300001 48 384s207.78666667-464 464-464 464 207.78666667 464 464S768.21333333 848 512 848z m-2.98666667-788.69333333c-37.76 0-68.48 30.08-68.48 67.09333333s30.61333333 67.09333333 68.48 67.09333333c37.76 0 68.48-30.08 68.48-67.09333333s-30.61333333-67.09333333-68.48-67.09333333z m183.89333334 379.62666666c-13.44-21.12-41.92-49.81333333-85.65333334-86.18666666-22.61333333-18.77333333-36.69333333-33.92-42.13333333-45.44-5.44-11.41333333-8-31.89333333-7.46666667-61.44h-97.49333333c-0.21333333 13.97333333-0.42666667 22.50666667-0.42666667 25.6 0 31.57333333 5.22666667 57.49333333 15.68 77.86666666 10.45333333 20.37333333 31.36 43.30666667 62.61333334 68.69333334 31.25333333 25.49333333 50.02666667 42.13333333 56.10666666 50.02666666 9.38666667 12.48 14.18666667 26.24 14.18666667 41.17333334 0 20.8-8.42666667 38.61333333-25.06666667 53.54666666-16.64 14.82666667-39.25333333 22.29333333-67.52 22.29333334-27.30666667 0-50.13333333-7.78666667-68.48-23.25333334-18.34666667-15.46666667-34.13333333-49.6-37.86666666-70.72-3.52-19.94666667-99.62666667-28.37333333-98.45333334 12.05333334 1.17333333 40.42666667 22.18666667 84.26666667 58.24 116.05333333 36.05333333 31.78666667 83.41333333 47.68 141.97333334 47.68 61.65333333 0 110.61333333-16.10666667 147.09333333-48.32 36.48-32.21333333 54.61333333-69.65333333 54.61333333-112.42666667 0.10666667-23.68-6.61333333-46.08-19.94666666-67.2z"  horiz-adv-x="1024" />

    
    <glyph glyph-name="youjiantou1" unicode="&#58909;" d="M698.181818 349.090909a35.141818 35.141818 0 0 0-24.669091 10.24l-372.363636 372.363636a34.909091 34.909091 0 0 0 49.338182 49.338182l372.363636-372.363636a34.676364 34.676364 0 0 0 0-49.338182 35.141818 35.141818 0 0 0-24.669091-10.24zM325.818182-23.272727a35.141818 35.141818 0 0 0-24.669091 10.24 34.676364 34.676364 0 0 0 0 49.338182l372.363636 372.363636a34.909091 34.909091 0 0 0 49.338182-49.338182l-372.363636-372.363636a35.141818 35.141818 0 0 0-24.669091-10.24z"  horiz-adv-x="1024" />

    
    <glyph glyph-name="caidan1" unicode="&#58948;" d="M896 736a32 32 0 0 0-32-32H160a32 32 0 1 0 0 64h704a32 32 0 0 0 32-32zM896 384a32 32 0 0 0-32-32H160a32 32 0 1 0 0 64h704a32 32 0 0 0 32-32zM896 32a32 32 0 0 0-32-32H160a32 32 0 1 0 0 64h704a32 32 0 0 0 32-32z"  horiz-adv-x="1024" />

    
    <glyph glyph-name="xingxing1" unicode="&#58894;" d="M575.852903 780.573598L661.092435 607.945638c10.130509-20.465674 29.675227-34.689317 52.289797-37.963825l190.433097-27.62866c56.996902-8.288598 79.7138-78.281203 38.475467-118.496253l-137.836314-134.35715c-16.372539-15.963226-23.84251-38.987109-19.954032-61.49935l32.540421-189.716799c9.721195-56.792245-49.833916-100.077146-100.793444-73.267113L545.870691 54.553812a69.491196 69.491196 0 0 1-64.67153 0l-170.376737-89.537324c-50.959528-26.810033-110.51464 16.474868-100.793444 73.267113L242.569401 228.0004c3.888478 22.512241-3.581493 45.536125-19.954032 61.49935L84.779055 423.754572c-41.238333 40.215049-18.521435 110.207655 38.475467 118.496252l190.433097 27.62866c22.61457 3.274508 42.159288 17.498151 52.289797 37.963826L451.319277 780.573598c25.479764 51.675827 99.053862 51.675827 124.533626 0z"  horiz-adv-x="1024" />

    
    <glyph glyph-name="diannao" unicode="&#58972;" d="M125.5 514.2L65.2 577V760.5s0 64.1 62.8 64.1h763.9s64.1 0 62.8-64.1v-560.4s0-62.8-62.8-62.8h-260l2.5-130.7-194.8 193.5h452.3V760.5H125.5v-246.3z m0 0M244.9 401.2V662.5h522.7v-364.4h-426z m389.5-394.6h175.9s46.5-30.2 0-60.3H694.7l-60.3 60.3z"  horiz-adv-x="1024" />

    
    <glyph glyph-name="zuojiantou3" unicode="&#59026;" d="M167.517867 382.340267l366.941866-367.586134a36.846933 36.846933 0 0 0 1.058134-50.961066 33.809067 33.809067 0 0 0-48.814934-1.024l-388.872533 389.154133c-16.657067 16.6656-16.648533 43.677867 0.017067 60.334933l389.623466 389.482667a33.489067 33.489067 0 0 0 48.341334-1.0368 36.5056 36.5056 0 0 0-1.053867-50.474667L167.517867 382.336z"  horiz-adv-x="1024" />

    
    <glyph glyph-name="taobaowang" unicode="&#59456;" d="M1287.339 17.92v65.963c0 54.357-26.198 78.592-95.062 78.592-28.16 0-44.629-1.963-51.456-7.766-5.802-3.84-9.728-12.629-16.469-25.258 18.432 4.864 36.864 7.765 55.296 7.765 38.827 0 55.296-13.568 55.296-44.63 0-2.9 0-6.826-0.939-10.666-10.666 13.568-30.122 22.357-50.432 22.357-45.568 0-76.629-27.136-76.629-69.888s29.099-70.826 70.827-70.826c24.234 0 44.629 8.704 58.197 25.258 0 0 2.901-11.605 15.53-18.432h0.94s0.938 0 0.938-0.938c0.939-0.939 1.963-0.939 2.901-0.939h0.939c0.939 0 1.963 0 1.963-0.939 3.84-0.938 7.765-0.938 11.605-0.938 35.925 0 36.864 29.098 36.864 29.098-19.37-1.109-20.31 5.632-20.31 22.187z m-88.32-25.259c-20.395 0-35.926 16.47-35.926 41.728 0 26.198 14.592 41.728 36.864 41.728 20.395 0 34.902-14.592 34.902-40.789 0.085-27.136-14.507-42.667-35.84-42.667zM739.072 162.475c-60.16 0-97.024-36.864-97.024-99.926s36.864-99.925 97.024-99.925 97.024 36.864 97.024 99.925c0 63.062-36.864 99.926-97.024 99.926z m0-170.752c-25.259 0-37.888 23.296-37.888 70.826s11.605 70.827 37.888 70.827c25.259 0 37.888-23.296 37.888-70.827s-12.715-70.826-37.888-70.826z m248.405 168.789c-24.234 0-41.728-6.827-54.357-21.333v64c-0.939 3.84-1.963 7.765-3.84 10.666l-0.939 0.939v1.11c0 0.938-0.938 1.962-1.962 1.962 0 0.939-0.939 0.939-1.963 1.963l-0.939 0.938-0.938 0.939c-2.902 2.901-5.803 4.864-9.728 5.803-5.803 1.962-12.63 3.84-21.334 3.84-22.357 0-31.061-13.568-31.061-13.568-3.84-4.864-5.803-9.728-6.827-15.531 19.371-0.939 23.296-7.765 23.296-27.136v-158.208c0-11.605 0.939-24.235-20.394-23.296 0 0 0-0.939 0.938-2.901 1.963-6.827 7.766-22.358 26.198-24.235 2.901-0.939 5.802-0.939 9.728-0.939 30.122 0 35.925 23.296 35.925 23.296 13.568-16.469 33.963-26.197 57.259-26.197 50.432 0 86.357 37.888 86.357 101.888 0.939 61.099-32.085 96-85.419 96zM973.91-6.4c-24.234 0-41.728 21.333-41.728 61.099v19.37c0 38.827 16.47 60.16 40.79 60.16 27.136 0 41.728-25.258 41.728-73.728-1.024-44.544-15.616-66.901-40.79-66.901z m452.182 168.875c-60.16 0-97.024-36.864-97.024-99.926s36.864-99.925 97.024-99.925 97.024 36.864 97.024 99.925c0 63.062-37.803 99.926-97.024 99.926z m0-170.752c-25.259 0-37.888 23.296-37.888 70.826s11.605 70.827 37.888 70.827c25.258 0 37.888-23.296 37.888-70.827s-12.63-70.826-37.888-70.826z m312.49 144.554c12.63 0 22.358-3.84 30.123-14.592 3.84-4.864 9.728-8.704 16.47-9.728 13.567-1.962 25.258 7.766 25.258 30.123 0 0-32 19.37-72.79 19.37-61.098 0-104.789-38.826-104.789-100.949 0-60.16 41.728-98.986 101.888-98.986 30.123 0 56.32 10.666 74.752 30.122-6.826 6.827-12.629 9.728-20.394 9.728-10.667 0-25.259-9.728-43.691-9.728-31.061 0-52.395 27.136-52.395 74.752-1.024 45.654 19.371 69.888 45.568 69.888z m196.011 26.198c-60.16 0-97.024-36.864-97.024-99.926s36.864-99.925 97.024-99.925 97.024 36.864 97.024 99.925c0 63.062-36.864 99.926-97.024 99.926z m0-170.752c-25.259 0-37.888 23.296-37.888 70.826s11.605 70.827 37.888 70.827c25.259 0 37.888-23.296 37.888-70.827s-12.63-70.826-37.888-70.826z m-355.157 26.197c-15.531 0-27.136-12.63-27.136-27.136 0-15.53 12.629-27.136 27.136-27.136 14.592 0 27.136 12.63 27.136 27.136 1.024 14.507-11.606 27.136-27.136 27.136zM449.877 211.03c-15.53-3.84-43.69-4.865-85.418-4.865-50.432 0-84.395 1.963-101.888 1.963-28.16 0-39.766-7.765-49.494-35.925 16.47 5.802 36.864 5.802 62.123 5.802 19.37 0 22.357-1.962 22.357-16.469v-159.147c0-15.53 6.827-27.136 19.371-33.024 1.963-0.938 4.864-1.962 7.765-2.901 3.84-0.939 7.766-0.939 12.63-0.939 38.826 0 45.568 29.099 45.568 29.099-19.371 0-23.296 6.827-23.296 26.197V161.536c0 14.592 5.802 15.53 25.258 15.53h14.507c30.123-1.023 38.827 4.865 50.517 33.963z m1914.624-192.171v73.728c0 47.53-20.394 69.888-66.986 69.888-24.235 0-44.63-8.704-58.198-26.198-11.605 17.494-30.122 26.198-56.32 26.198-24.234 0-42.666-7.766-56.32-22.358 0 0-3.84 19.371-36.864 19.371-9.728 0-16.469-1.963-21.333-4.864-6.827-3.84-9.728-8.704-9.728-8.704-2.901-3.84-4.864-9.728-5.803-14.592 19.371-0.939 23.296-7.765 23.296-26.197v-137.814h53.334V90.71c0 30.123 9.728 44.63 33.962 44.63 20.395 0 29.099-11.606 29.099-36.864v-132.011h53.333V90.709c0 30.123 9.728 44.63 33.963 44.63 20.395 0 29.099-11.606 29.099-36.864v-93.184s0-3.84 0.938-9.728v-0.939c0-0.939 0-1.963 0.939-1.963 0-0.938 0-0.938 0.939-1.962v-0.939c0-0.939 0-0.939 0.938-1.963v-0.938c0-0.939 0.939-0.939 0.939-1.963 0 0 0-0.939 0.939-0.939 0.938-1.962 1.962-3.84 3.84-5.802l0.938-0.939 0.939-0.939 0.939-0.938 0.938-0.939s0.939-0.939 1.963-0.939l0.939-0.938c0.938 0 0.938-0.939 1.962-0.939 0 0 0.939 0 0.939-0.939 4.864-2.901 11.605-3.84 19.37-3.84 35.926 0 36.865 29.099 36.865 29.099-18.859-1.28-19.798 6.485-19.798 22.955z m-1764.266-0.939v65.963c0 54.357-26.198 78.592-95.062 78.592-28.16 0-44.629-1.963-51.456-7.766-5.802-3.84-9.728-12.629-16.469-25.258 18.432 4.864 36.864 7.765 55.296 7.765 38.827 0 55.296-13.568 55.296-44.63 0-2.9 0-6.826-0.939-10.666-10.666 13.568-30.122 22.357-50.432 22.357-45.568 0-76.629-27.136-76.629-69.888s29.099-70.826 70.827-70.826c24.234 0 44.629 8.704 58.197 25.258 0 0 2.901-11.605 15.53-18.432h0.94s0.938 0 0.938-0.938c0.939-0.939 1.963-0.939 2.901-0.939h0.939c0.939 0 1.963 0 1.963-0.939 3.84-0.938 7.765-0.938 11.605-0.938 35.925 0 36.864 29.098 36.864 29.098-18.347-1.109-20.31 5.632-20.31 22.187z m-87.296-25.259c-20.395 0-35.926 16.47-35.926 41.728 0 26.198 14.592 41.728 36.864 41.728 20.395 0 34.902-14.592 34.902-40.789-0.939-27.136-15.446-42.667-35.84-42.667zM233.472 676.096l-40.79-62.123 74.753-46.592s49.493-25.258 26.197-73.728C271.275 448 162.645 349.013 162.645 349.013l98.048-61.098c67.926 146.517 63.062 127.146 80.555 179.541 17.493 53.333 21.333 95.061-8.704 124.245-37.973 38.742-42.837 41.643-99.072 84.395zM484.779 754.688c15.53 27.136 23.296 44.63 23.296 44.63l-90.283 25.258s-36.864-118.357-100.95-173.739c0 0 63.062-35.925 62.123-34.901 18.432 18.432 33.963 35.925 48.555 54.357 14.592 5.803 28.16 12.63 41.728 17.494-16.47-30.123-43.69-74.752-70.827-103.851l37.888-33.024s26.198 25.259 54.358 55.296h32v-55.296H396.459v-44.63H522.58V400.47h-4.864c-13.568 0.939-35.925 2.902-43.69 16.47-10.667 16.469-2.902 46.592-1.963 64.085h-86.272l-2.901-1.963s-32-142.677 92.16-139.776c115.456-2.901 181.504 32 213.504 56.32l12.629-47.53 70.827 29.098-48.555 118.358-58.197-18.432 10.666-40.79c-14.592-10.666-32-19.37-50.432-25.258V504.32h123.222v44.63H625.493v55.295h123.222v45.568H529.408c15.53 19.371 28.16 36.864 31.061 47.531l-37.888 10.667c164.011 58.197 255.232 48.554 254.294-47.531v-253.27s9.728-87.295-90.283-80.554l-53.333 11.605-12.63-51.456S853.504 219.82 871.936 399.36c19.37 178.517-4.864 293.035-4.864 293.035s-20.31 165.12-382.293 62.293z m1036.458-154.283v11.606l28.16-27.136s90.283 56.32 87.296 117.418c-1.962 61.099-61.098 73.728-153.344 78.592-28.16 0.939-78.592-1.962-135.85-6.826v39.85H1233.92v-50.432c-65.024-6.826-124.245-14.592-155.307-18.432V766.38H977.664V587.86h100.95v12.63h154.282v-57.259h-177.579v-47.53h177.579v-136.79H977.664v-59.392h640.512v59.221h-269.739V496.555h198.912v46.592h-198.912v57.258h172.8zM1078.7 687.701c85.418 19.371 372.65 65.024 425.984 38.827 63.061-32-21.334-78.592-21.334-78.592l0.939-0.939h-405.675v40.704h0.086z m1290.666-11.605c-1.962 35.925-21.333 119.381-182.442 134.912-133.888 12.63-297.899-47.53-350.294-68.864v42.667h-111.616v-482.304h112.555V473.259l29.099-28.16s35.925 29.098 77.653 67.925c20.395-30.123 34.901-54.357 34.901-54.357l62.123 62.122c-7.765 15.531-22.357 32-38.827 49.494 11.606 11.605 22.358 24.234 32 35.925 19.371-15.53 40.79-37.888 60.16-60.16-64.085-90.283-138.752-122.283-138.752-122.283l35.926-48.554c53.333 28.16 103.85 71.85 145.578 117.418 24.235-33.024 41.728-59.221 41.728-59.221l79.616 66.987c-8.704 15.53-33.962 36.864-63.061 60.16 32 41.728 56.32 77.653 66.987 96.085 1.962-69.888 2.901-197.035-1.963-257.195-6.827-91.221-98.048-33.024-98.048-33.024l-4.864-48.554s40.79-26.198 107.69-37.888c114.518-19.371 104.79 109.653 106.753 178.517 0 66.219 1.962 146.773-2.902 217.6z m-198.912 50.432c-9.728-47.53-24.234-88.32-41.728-122.283-26.197 17.494-50.432 33.024-65.024 42.667 5.803 10.667 10.667 20.395 11.606 29.099l-83.456 41.728s-17.494-46.592-47.531-98.987c-35.925 27.136-67.925 47.53-67.925 47.53l-31.062-39.765c18.432-10.666 41.728-35.925 63.062-63.061-20.395-27.136-44.63-51.456-69.888-66.987V678.06c95.061 44.629 241.664 85.418 331.861 91.221 52.395 2.901 75.69-16.47 84.395-34.901 4.864-9.728 5.802-25.259 5.802-33.024 0-6.827 0.939-17.494 0.939-29.099l-91.05 54.272zM286.805 699.392c35.926 0 64.086 26.197 64.086 57.259 0 32-29.099 57.258-64.086 57.258-35.925 0.939-64.085-25.258-64.085-57.258s28.16-57.259 64.085-57.259zM1393.579 445.696c2.133 17.408 18.517 30.464 38.058 28.245 19.542-1.109 33.707-17.408 31.488-33.706-2.133-17.408-18.517-30.464-38.058-28.246-17.408 1.11-30.464 13.056-31.488 28.246v5.461z"  horiz-adv-x="2491" />

    
    <glyph glyph-name="erweima1" unicode="&#58931;" d="M912.23754907 83.70338960000004L912.23754907 137.78405722000002 858.15767168 137.78405722000002ZM398.47555718 732.66665428L398.47555718 597.46617173 452.55543378 543.38550489 452.55543378 786.74653167 209.19440775 786.74653167 263.27428437 732.66665428ZM858.15767168 354.10435469000004L668.87652227 354.10435469000004 668.87652227 327.06441638 722.95639888 272.98453976999997 722.95639888 300.02447809 777.03706651 300.02447809 777.03706651 245.94460146999995 749.99712821 245.94460146999995 858.15767168 137.78405722000002 858.15767168 191.86393384999997 912.23754907 191.86393384999997 912.23754907 245.94460146999995 912.23754907 300.02447809 858.15767168 300.02447809ZM371.43482862 624.50611081L371.43482862 705.62671598 290.31501294 705.62671598ZM506.63531117 786.74653167l54.07987661 0 0-54.07987662-54.07987661 0 0 54.07987662ZM668.87652227 786.74653167l0-243.3610268 243.3610268 0L912.23754907 786.74653167 668.87652227 786.74653167zM858.15767168 597.46617173L722.95639888 597.46617173 722.95639888 732.66665428l135.20048255 0L858.15688143 597.46617173zM749.99712821 705.62671598l81.12060594 0 0-81.12060594-81.12060594 0 0 81.12060594ZM614.79585465 489.30562827L614.79585465 570.42544318 560.71597802 570.42544318 560.71597802 489.30562827 506.63610142 489.30562827 560.71597802 435.22496063 614.79585465 435.22496063 614.79585465 381.14508401 695.91646059 381.14508401 695.91646059 435.22496063 749.99712821 435.22496063 749.99712821 489.30562827ZM614.79585465 624.50611081L614.79585465 732.66665428 560.71597802 732.66665428 560.71597802 678.58598742 506.63531117 678.58598742 506.63531117 570.42544318 560.71597802 570.42544318 560.71597802 624.50611081ZM858.15767168 489.30562827L804.07700483 489.30562827 804.07700483 435.22496063 749.99712821 435.22496063 749.99712821 381.14508401 912.23754907 381.14508401 912.23754907 435.22496063 858.15767168 435.22496063Z"  horiz-adv-x="1024" />

    
    <glyph glyph-name="yonghu" unicode="&#58889;" d="M209.454545 607.418182c0-158.254545 134.981818-288.581818 302.545455-288.581818s302.545455 130.327273 302.545455 288.581818C809.890909 765.672727 674.909091 896 512 896 344.436364 896 209.454545 765.672727 209.454545 607.418182zM46.545455-128c0 246.690909 209.454545 446.836364 465.454545 446.836364s465.454545-200.145455 465.454545-446.836364H46.545455z"  horiz-adv-x="1024" />

    
    <glyph glyph-name="xinaixin-fuben1" unicode="&#58633;" d="M1045.333 778.667C919.467 902.4 716.8 906.667 584.533 789.333 452.267 906.667 249.6 902.4 123.733 778.667c-128-128-130.133-337.067-2.133-467.2l4.267-4.267 384-384c40.533-40.533 106.666-42.667 149.333-2.133l2.133 2.133 384 384c128 128 130.134 337.067 4.267 465.067-2.133 4.266-2.133 4.266-4.267 6.4z"  horiz-adv-x="1169" />

    
    <glyph glyph-name="xiaoxi" unicode="&#58629;" d="M932.571 859.429h-768A90.697 90.697 0 0 1 73.143 768v-581.486a91.429 91.429 0 0 1 91.428-95.085H321.83V-40.23000000000002a50.103 50.103 0 0 1 51.2-51.2 65.097 65.097 0 0 1 36.57 14.63l168.229 168.229h351.085a90.697 90.697 0 0 1 91.429 91.428V768a85.577 85.577 0 0 1-87.772 91.429zM661.943 318.16999999999996H266.97a47.543 47.543 0 0 0 0 95.086h394.972a47.543 47.543 0 0 0 0-95.086zM830.17 537.6h-563.2a46.08 46.08 0 0 0-47.542 47.543 48.274 48.274 0 0 0 47.542 47.543h563.2a48.274 48.274 0 0 0 47.543-47.543A46.08 46.08 0 0 0 830.17 537.6z"  horiz-adv-x="1097" />

    
    <glyph glyph-name="chahao" unicode="&#58881;" d="M174.08-44.799999999999955a32 32 0 0 0-22.4 54.4l704 704a32 32 0 0 0 45.44 0 32 32 0 0 0 0-44.8l-704-704a32.64 32.64 0 0 0-23.04-9.6zM878.08-44.799999999999955a31.36 31.36 0 0 0-22.4 9.6l-704 704a30.72 30.72 0 0 0 0 44.8 32 32 0 0 0 45.44 0l704-704a32 32 0 0 0 0-44.8 32.64 32.64 0 0 0-23.04-9.6z"  horiz-adv-x="1024" />

    
    <glyph glyph-name="saoyisao" unicode="&#58961;" d="M880 896H714.666667a32 32 0 0 1 0-64h165.333333A80 80 0 0 0 960 752v-165.333333a32 32 0 0 1 64 0V752A144 144 0 0 1 880 896zM0 752v-165.333333a32 32 0 0 1 64 0V752A80 80 0 0 0 144 832h165.333333a32 32 0 0 1 0 64H144A144 144 0 0 1 0 752z m960-736A80 80 0 0 0 880-64H714.666667a32 32 0 0 1 0-64h165.333333A144 144 0 0 1 1024 16V181.333333a32 32 0 0 1-64 0v-165.333333z m-896 0V181.333333a32 32 0 0 1-64 0v-165.333333A144 144 0 0 1 144-128h165.333333a32 32 0 0 1 0 64H144A80 80 0 0 0 64 16zM992 352h-960a32 32 0 0 0 0 64h960a32 32 0 0 0 0-64z"  horiz-adv-x="1024" />

    
    <glyph glyph-name="zuojiantou4" unicode="&#58883;" d="M677.391515 22.083232c-7.86101 0-15.618586 2.999596-21.617778 8.895354L324.473535 362.278788c-11.998384 11.894949-11.998384 31.340606 0 43.235555L655.670303 736.711111c5.999192 5.999192 13.756768 8.895354 21.617778 8.895354 7.757576 0 15.618586-2.999596 21.617778-8.895354 11.894949-11.894949 11.894949-31.237172 0-43.235555L389.223434 383.896566 698.905859 74.214141c11.894949-11.998384 11.894949-31.340606 0-43.235555-5.895758-5.895758-13.756768-8.895354-21.514344-8.895354z m0 0"  horiz-adv-x="1024" />

    
    <glyph glyph-name="shouji" unicode="&#58900;" d="M727.54 809.256c19.225 0 34.953-15.729 34.953-34.953v-780.606c0-19.224-15.728-34.953-34.952-34.953H296.459c-19.224 0-34.952 15.729-34.952 34.953V774.303c0 19.224 15.728 34.953 34.952 34.953h431.082m0 69.905H296.459c-57.671 0-104.857-47.186-104.857-104.858v-780.606c0-57.672 47.186-104.858 104.857-104.858h431.082c57.671 0 104.857 47.186 104.857 104.858V774.303c0 57.672-47.186 104.858-104.857 104.858zM765.406 106.127H258.594c-36.7 0-66.992-29.71-66.992-66.992v-50.681c0-36.7 29.71-66.993 66.992-66.993h506.812c36.7 0 66.992 29.71 66.992 66.993v50.681c0 37.283-30.292 66.992-66.992 66.992zM510.835-30.77c-29.127 0-53.011 23.884-53.011 53.011s23.884 53.012 53.01 53.012 53.012-23.885 53.012-53.012-23.884-53.011-53.011-53.011z"  horiz-adv-x="1024" />

    
    <glyph glyph-name="zuojiantou5" unicode="&#58882;" d="M677.391515 22.083232c-7.86101 0-15.618586 2.999596-21.617778 8.895354L324.473535 362.278788c-11.998384 11.894949-11.998384 31.340606 0 43.235555L655.670303 736.711111c5.999192 5.999192 13.756768 8.895354 21.617778 8.895354 7.757576 0 15.618586-2.999596 21.617778-8.895354 11.894949-11.894949 11.894949-31.237172 0-43.235555L389.223434 383.896566 698.905859 74.214141c11.894949-11.998384 11.894949-31.340606 0-43.235555-5.895758-5.895758-13.756768-8.895354-21.514344-8.895354z m0 0"  horiz-adv-x="1024" />

    
    <glyph glyph-name="zhifubao" unicode="&#58898;" d="M186.88 248.32c-2.56-87.04 97.28-94.72 112.64-94.72 51.2-2.56 92.16 17.92 122.88 35.84 30.72 17.92 84.48 66.56 87.04 69.12l5.12 5.12c-12.8 7.68-28.16 15.36-40.96 20.48-12.8 7.68-81.92 43.52-140.8 48.64-117.76 12.8-145.92-58.88-145.92-84.48m401.92-23.04s-76.8-61.44-104.96-76.8c-25.6-12.8-46.08-23.04-66.56-30.72-20.48-7.68-38.4-10.24-53.76-12.8s-28.16-2.56-38.4-2.56h-12.8c-25.6 0-51.2 2.56-74.24 10.24-23.04 5.12-43.52 15.36-61.44 28.16-17.92 12.8-30.72 28.16-40.96 46.08-10.24 17.92-15.36 40.96-15.36 64 0 20.48 5.12 40.96 17.92 56.32 10.24 17.92 25.6 30.72 43.52 43.52 17.92 12.8 35.84 20.48 58.88 28.16 20.48 5.12 43.52 7.68 64 7.68s40.96-2.56 61.44-7.68 38.4-10.24 56.32-15.36c17.92-5.12 35.84-12.8 51.2-17.92 15.36-7.68 30.72-12.8 46.08-20.48 5.12-2.56 12.8-5.12 17.92-7.68s12.8-5.12 20.48-7.68c12.8 17.92 25.6 35.84 35.84 51.2 10.24 17.92 17.92 33.28 23.04 46.08 5.12 15.36 10.24 25.6 15.36 35.84 2.56 10.24 5.12 15.36 7.68 20.48H320v33.28h148.48V576h-204.8v38.4h204.8v64c0 5.12 2.56 7.68 7.68 10.24s10.24 5.12 15.36 5.12c7.68 2.56 15.36 2.56 25.6 2.56h56.32v-81.92h209.92v-33.28h-209.92v-79.36h166.4c-2.56-20.48-10.24-43.52-17.92-66.56-7.68-20.48-17.92-43.52-30.72-71.68-12.8-25.6-30.72-53.76-51.2-81.92 0 0 163.84-79.36 337.92-107.52 28.16 64 46.08 135.68 46.08 209.92C1024 665.6 793.6 896 512 896S0 665.6 0 384s230.4-512 512-512c176.64 0 330.24 87.04 422.4 222.72-94.72 20.48-194.56 61.44-345.6 130.56"  horiz-adv-x="1024" />

    


  </font>
</defs>
</svg>
